<svg class="cgk3d c2ysc" width="44" height="24" viewBox="0 0 44 24" xmlns="http://www.w3.org/2000/svg">
                                    <g class="text-white c4u31" fill-rule="nonzero" opacity=".88">
                                        <path d="M32 8a.5.5 0 00.5-.5v-1a.5.5 0 10-1 0v1a.5.5 0 00.5.5zM35.182 9.318a.5.5 0 00.354-.147l.707-.707a.5.5 0 00-.707-.707l-.707.707a.5.5 0 00.353.854zM37.5 11.5h-1a.5.5 0 100 1h1a.5.5 0 100-1zM35.536 14.829a.5.5 0 00-.707.707l.707.707a.5.5 0 00.707-.707l-.707-.707zM32 16a.5.5 0 00-.5.5v1a.5.5 0 101 0v-1a.5.5 0 00-.5-.5zM28.464 14.829l-.707.707a.5.5 0 00.707.707l.707-.707a.5.5 0 00-.707-.707zM28 12a.5.5 0 00-.5-.5h-1a.5.5 0 100 1h1a.5.5 0 00.5-.5zM28.464 9.171a.5.5 0 00.707-.707l-.707-.707a.5.5 0 00-.707.707l.707.707z"></path>
                                        <circle cx="32" cy="12" r="3"></circle>
                                        <circle fill-opacity=".4" cx="12" cy="12" r="6"></circle>
                                        <circle fill-opacity=".88" cx="12" cy="12" r="3"></circle>
                                    </g>
                                </svg>